<svg width="16" height="16" viewBox="0 0 16 16" fill="none" xmlns="http://www.w3.org/2000/svg">
<g clip-path="url(#clip0_5_560)">
<path d="M14.2635 2.1918H12.2105V1.24444C12.2105 0.982489 11.9988 0.770752 11.7368 0.770752C11.4749 0.770752 11.2631 0.982489 11.2631 1.24444V2.1918H8.42104V1.24444C8.42104 0.982489 8.20883 0.770752 7.94736 0.770752C7.68588 0.770752 7.47367 0.982489 7.47367 1.24444V2.1918H4.63157V1.24444C4.63157 0.982489 4.41936 0.770752 4.15788 0.770752C3.89641 0.770752 3.6842 0.982489 3.6842 1.24444V2.1918H1.63172C0.933987 2.1918 0.368408 2.75691 0.368408 3.45465V14.6653C0.368408 15.3631 0.933987 15.9286 1.63172 15.9286H14.2635C14.9612 15.9286 15.5263 15.3631 15.5263 14.6653V3.45465C15.5263 2.75691 14.9612 2.1918 14.2635 2.1918ZM14.5789 14.6653C14.5789 14.8396 14.4373 14.9813 14.2635 14.9813H1.63172C1.45741 14.9813 1.31578 14.8396 1.31578 14.6653V3.45465C1.31578 3.2808 1.45741 3.13917 1.63172 3.13917H3.6842V4.08654C3.6842 4.34849 3.89641 4.56023 4.15788 4.56023C4.41936 4.56023 4.63157 4.34849 4.63157 4.08654V3.13917H7.47367V4.08654C7.47367 4.34849 7.68588 4.56023 7.94736 4.56023C8.20883 4.56023 8.42104 4.34849 8.42104 4.08654V3.13917H11.2631V4.08654C11.2631 4.34849 11.4749 4.56023 11.7368 4.56023C11.9988 4.56023 12.2105 4.34849 12.2105 4.08654V3.13917H14.2635C14.4373 3.13917 14.5789 3.2808 14.5789 3.45465V14.6653Z" fill="#ADADAD"/>
<path d="M5.57894 6.45508H3.6842V7.87613H5.57894V6.45508Z" fill="#ADADAD"/>
<path d="M5.57894 8.82349H3.6842V10.2445H5.57894V8.82349Z" fill="#ADADAD"/>
<path d="M5.57894 11.1919H3.6842V12.6129H5.57894V11.1919Z" fill="#ADADAD"/>
<path d="M8.89474 11.1919H7V12.6129H8.89474V11.1919Z" fill="#ADADAD"/>
<path d="M8.89474 8.82349H7V10.2445H8.89474V8.82349Z" fill="#ADADAD"/>
<path d="M8.89474 6.45508H7V7.87613H8.89474V6.45508Z" fill="#ADADAD"/>
<path d="M12.2105 11.1919H10.3158V12.6129H12.2105V11.1919Z" fill="#ADADAD"/>
<path d="M12.2105 8.82349H10.3158V10.2445H12.2105V8.82349Z" fill="#ADADAD"/>
<path d="M12.2105 6.45508H10.3158V7.87613H12.2105V6.45508Z" fill="#ADADAD"/>
</g>
<defs>
<clipPath id="clip0_5_560">
<rect width="15.1579" height="15.1579" fill="white" transform="translate(0.368408 0.770752)"/>
</clipPath>
</defs>
</svg>
