<svg width="11" height="11" viewBox="0 0 11 11" fill="none" xmlns="http://www.w3.org/2000/svg">
<g clip-path="url(#clip0_5_637)">
<path d="M10.0402 7.80871L9.58609 9.77746C9.5223 10.0558 9.27769 10.2505 8.99117 10.2505C4.06363 10.2501 0.0558167 6.2423 0.0558167 1.31457C0.0558167 1.02824 0.250524 0.783318 0.528864 0.719842L2.49761 0.26574C2.78433 0.199295 3.0773 0.348123 3.19644 0.619646L4.10504 2.73879C4.21125 2.9884 4.13961 3.27922 3.92964 3.4507L2.87808 4.29504C3.54175 5.64699 4.64097 6.74621 5.99332 7.41027L6.85425 6.35949C7.02394 6.14894 7.31695 6.07609 7.56656 6.1842L9.6857 7.0926C9.94058 7.22668 10.1066 7.52355 10.0402 7.80871Z" fill="#252525"/>
</g>
<defs>
<clipPath id="clip0_5_637">
<rect width="10" height="10" fill="white" transform="translate(0.0558167 0.25)"/>
</clipPath>
</defs>
</svg>
