<svg width="16" height="15" viewBox="0 0 16 15" fill="none" xmlns="http://www.w3.org/2000/svg">
<g clip-path="url(#clip0_43_7326)">
<path d="M12.7964 12.2965L3.20284 2.70322L3.20079 2.70087C3.14886 2.64936 3.08728 2.60858 3.01958 2.58086C2.95188 2.55314 2.87938 2.53903 2.80623 2.53933C2.73308 2.53963 2.6607 2.55433 2.59323 2.5826C2.52576 2.61087 2.46452 2.65216 2.413 2.7041C2.36149 2.75603 2.3207 2.81761 2.29299 2.88531C2.26527 2.95301 2.25116 3.02551 2.25146 3.09866C2.25206 3.2464 2.31133 3.38785 2.41622 3.49189L3.25617 4.33183C2.23755 5.02946 1.36076 5.9143 0.672474 6.93925C0.560076 7.1052 0.5 7.30103 0.5 7.50146C0.5 7.70189 0.560076 7.89772 0.672474 8.06367C2.42941 10.6641 5.21466 12.1875 7.99991 12.1685C8.9021 12.1717 9.79828 12.0215 10.6501 11.7243L12.0098 13.084C12.1145 13.1854 12.2549 13.2416 12.4007 13.2406C12.5464 13.2396 12.686 13.1815 12.7894 13.0787C12.8927 12.9759 12.9517 12.8366 12.9535 12.6909C12.9553 12.5451 12.8998 12.4044 12.799 12.2991L12.7964 12.2965ZM7.99991 10.6564C7.47222 10.6562 6.95298 10.5238 6.48967 10.2712C6.02635 10.0186 5.63372 9.65396 5.34766 9.21052C5.0616 8.76708 4.89124 8.25903 4.85214 7.73278C4.81304 7.20654 4.90646 6.67888 5.12384 6.19804L6.00128 7.07548C5.93061 7.40853 5.94426 7.75395 6.04101 8.08038C6.13776 8.40681 6.31454 8.70389 6.55528 8.94463C6.79602 9.18537 7.0931 9.36215 7.41953 9.4589C7.74595 9.55565 8.09138 9.5693 8.42443 9.49863L9.30187 10.3761C8.89291 10.5615 8.44895 10.6571 7.99991 10.6564Z" fill="black"/>
<path d="M15.3272 6.93779C13.5703 4.33593 10.7851 2.81249 7.99981 2.83154C7.09762 2.82827 6.20144 2.97846 5.34961 3.27568L6.69727 4.62333C7.28206 4.35869 7.93361 4.27855 8.5651 4.39361C9.19659 4.50866 9.77802 4.81343 10.2319 5.26731C10.6858 5.72119 10.9906 6.30262 11.1056 6.93411C11.2207 7.5656 11.1405 8.21716 10.8759 8.80195L12.7433 10.6693C13.7621 9.97181 14.639 9.08696 15.3272 8.06191C15.4396 7.89599 15.4996 7.70022 15.4996 7.49985C15.4996 7.29948 15.4396 7.1037 15.3272 6.93779Z" fill="black"/>
<path d="M8.00068 5.45683C7.85802 5.45685 7.71574 5.47178 7.57617 5.50136L9.99932 7.92422C10.0625 7.62653 10.0584 7.31849 9.98729 7.0226C9.91618 6.72671 9.77988 6.45044 9.58833 6.21396C9.39678 5.97749 9.15483 5.7868 8.88015 5.65581C8.60547 5.52481 8.305 5.45683 8.00068 5.45683Z" fill="black"/>
</g>
<defs>
<clipPath id="clip0_43_7326">
<rect width="15" height="15" fill="white" transform="translate(0.5)"/>
</clipPath>
</defs>
</svg>
