<svg width="15" height="13" viewBox="0 0 15 13" fill="none" xmlns="http://www.w3.org/2000/svg">
<path d="M3.59568 11.7812H12.299C12.692 11.7812 13.0688 11.6363 13.3467 11.3783C13.6246 11.1203 13.7807 10.7703 13.7807 10.4054V3.13625C13.7807 2.77136 13.6246 2.42141 13.3467 2.16339C13.0688 1.90537 12.692 1.76042 12.299 1.76042H11.1323V1.625C11.1323 1.51726 11.0863 1.41392 11.0042 1.33774C10.9222 1.26155 10.8109 1.21875 10.6948 1.21875C10.5788 1.21875 10.4675 1.26155 10.3855 1.33774C10.3034 1.41392 10.2573 1.51726 10.2573 1.625V1.76042H5.32235V1.625C5.32235 1.51726 5.27625 1.41392 5.19421 1.33774C5.11216 1.26155 5.00088 1.21875 4.88485 1.21875C4.76882 1.21875 4.65754 1.26155 4.57549 1.33774C4.49344 1.41392 4.44735 1.51726 4.44735 1.625V1.76042H3.59568C3.20272 1.76042 2.82585 1.90537 2.54798 2.16339C2.27012 2.42141 2.11401 2.77136 2.11401 3.13625V10.4054C2.11401 10.7703 2.27012 11.1203 2.54798 11.3783C2.82585 11.6363 3.20272 11.7812 3.59568 11.7812ZM12.299 10.9688H3.59568C3.44097 10.9688 3.2926 10.9117 3.1832 10.8101C3.07381 10.7085 3.01235 10.5707 3.01235 10.4271V5.23792H12.929V10.4054C12.9326 10.4821 12.9186 10.5587 12.8878 10.63C12.8571 10.7013 12.8104 10.7658 12.7509 10.819C12.6913 10.8723 12.6202 10.9132 12.5423 10.939C12.4644 10.9648 12.3815 10.975 12.299 10.9688ZM3.59568 2.57292H4.44735V2.70833C4.44735 2.81608 4.49344 2.91941 4.57549 2.9956C4.65754 3.07178 4.76882 3.11458 4.88485 3.11458C5.00088 3.11458 5.11216 3.07178 5.19421 2.9956C5.27625 2.91941 5.32235 2.81608 5.32235 2.70833V2.57292H10.2807V2.70833C10.2807 2.81608 10.3268 2.91941 10.4088 2.9956C10.4909 3.07178 10.6021 3.11458 10.7182 3.11458C10.8342 3.11458 10.9455 3.07178 11.0275 2.9956C11.1096 2.91941 11.1557 2.81608 11.1557 2.70833V2.57292H12.3223C12.4771 2.57292 12.6254 2.62999 12.7348 2.73157C12.8442 2.83315 12.9057 2.97092 12.9057 3.11458V4.42542H2.98901V3.13625C2.98572 3.06145 2.99916 2.98684 3.02848 2.91711C3.05781 2.84738 3.10238 2.78405 3.15938 2.73112C3.21639 2.67818 3.28459 2.6368 3.35968 2.60957C3.43477 2.58234 3.51513 2.56986 3.59568 2.57292Z" fill="#252525"/>
</svg>
