<svg width="7" height="7" viewBox="0 0 7 7" fill="none" xmlns="http://www.w3.org/2000/svg">
<path d="M3.77314 5.44451L6.88817 2.32942C6.96028 2.25737 7 2.16119 7 2.05864C7 1.95609 6.96028 1.85991 6.88817 1.78786L6.65882 1.55846C6.50938 1.40918 6.26649 1.40918 6.11727 1.55846L3.50145 4.17427L0.882733 1.55555C0.810628 1.48351 0.714507 1.44373 0.612011 1.44373C0.509402 1.44373 0.413281 1.48351 0.341119 1.55555L0.111828 1.78496C0.0397234 1.85706 0 1.95318 0 2.05574C0 2.15829 0.0397234 2.25447 0.111828 2.32652L3.22971 5.44451C3.30204 5.51673 3.39861 5.55639 3.50128 5.55616C3.60434 5.55639 3.70086 5.51673 3.77314 5.44451Z" fill="black"/>
</svg>
