<svg width="24" height="24" viewBox="0 0 24 24" fill="none" xmlns="http://www.w3.org/2000/svg">
<g clip-path="url(#clip0_35_55)">
<path d="M12.4247 0.883179H12.4189C6.07813 0.883179 0.921814 6.04093 0.921814 12.3832C0.921814 14.8988 1.73256 17.2304 3.11113 19.1236L1.67794 23.3959L6.09825 21.9828C7.91669 23.1874 10.0859 23.8832 12.4247 23.8832C18.7655 23.8832 23.9218 18.724 23.9218 12.3832C23.9218 6.04237 18.7655 0.883179 12.4247 0.883179ZM19.1163 17.1226C18.8388 17.9061 17.7377 18.5558 16.8594 18.7456C16.2585 18.8735 15.4736 18.9756 12.8315 17.8802C9.45194 16.4801 7.27556 13.0459 7.10594 12.8231C6.9435 12.6002 5.74031 11.0046 5.74031 9.35437C5.74031 7.70412 6.57838 6.90055 6.91619 6.55555C7.19363 6.27237 7.65219 6.14299 8.09206 6.14299C8.23438 6.14299 8.36231 6.15018 8.47731 6.15593C8.81513 6.1703 8.98475 6.19043 9.20756 6.72374C9.485 7.39218 10.1606 9.04243 10.2411 9.21205C10.3231 9.38168 10.405 9.61168 10.29 9.83449C10.1822 10.0645 10.0873 10.1666 9.91769 10.3621C9.74806 10.5576 9.58706 10.7071 9.41744 10.9169C9.26219 11.0995 9.08681 11.295 9.28231 11.6328C9.47781 11.9634 10.1534 13.066 11.1482 13.9515C12.4319 15.0943 13.4726 15.4594 13.8449 15.6147C14.1224 15.7297 14.453 15.7024 14.6557 15.4867C14.913 15.2093 15.2307 14.7493 15.5541 14.2965C15.7841 13.9716 16.0745 13.9314 16.3793 14.0464C16.6898 14.1542 18.3328 14.9664 18.6706 15.1346C19.0084 15.3042 19.2313 15.3847 19.3132 15.527C19.3937 15.6693 19.3937 16.3377 19.1163 17.1226Z" fill="white"/>
</g>
<defs>
<clipPath id="clip0_35_55">
<rect width="23" height="23" fill="white" transform="translate(0.921814 0.883179)"/>
</clipPath>
</defs>
</svg>
