<svg width="19" height="18" viewBox="0 0 19 18" fill="none" xmlns="http://www.w3.org/2000/svg">
<g clip-path="url(#clip0_43_2639)">
<path d="M16.0205 9.60895H14.6284C14.7703 9.99743 14.8478 10.4167 14.8478 10.8536V16.1148C14.8478 16.2969 14.8161 16.4718 14.7584 16.6344H17.0598C17.9195 16.6344 18.6188 15.935 18.6188 15.0754V12.2073C18.6189 10.7746 17.4532 9.60895 16.0205 9.60895Z" fill="#454545"/>
<path d="M4.38969 10.8537C4.38969 10.4167 4.46721 9.99746 4.60911 9.60898H3.21706C1.7843 9.60898 0.618652 10.7746 0.618652 12.2074V15.0755C0.618652 15.9351 1.31802 16.6345 2.17769 16.6345H4.4791C4.42141 16.4718 4.38969 16.297 4.38969 16.1148V10.8537Z" fill="#454545"/>
<path d="M11.21 8.25525H8.0276C6.59484 8.25525 5.4292 9.42089 5.4292 10.8537V16.1148C5.4292 16.4018 5.66186 16.6345 5.94888 16.6345H13.2887C13.5758 16.6345 13.8084 16.4018 13.8084 16.1148V10.8537C13.8084 9.42089 12.6428 8.25525 11.21 8.25525Z" fill="#454545"/>
<path d="M9.61856 1.36551C7.89548 1.36551 6.49365 2.76733 6.49365 4.49045C6.49365 5.65922 7.13874 6.67998 8.0914 7.21591C8.54327 7.47009 9.06421 7.61535 9.61856 7.61535C10.1729 7.61535 10.6938 7.47009 11.1457 7.21591C12.0984 6.67998 12.7435 5.65918 12.7435 4.49045C12.7435 2.76737 11.3416 1.36551 9.61856 1.36551Z" fill="#454545"/>
<path d="M4.13145 4.27817C2.8428 4.27817 1.79443 5.32653 1.79443 6.61518C1.79443 7.90384 2.8428 8.9522 4.13145 8.9522C4.45833 8.9522 4.76961 8.88449 5.05237 8.76278C5.54125 8.5523 5.94436 8.17971 6.19379 7.71301C6.36887 7.38546 6.46847 7.01178 6.46847 6.61518C6.46847 5.32656 5.4201 4.27817 4.13145 4.27817Z" fill="#454545"/>
<path d="M15.1061 4.27817C13.8174 4.27817 12.769 5.32653 12.769 6.61518C12.769 7.01182 12.8686 7.38549 13.0437 7.71301C13.2932 8.17975 13.6963 8.55233 14.1851 8.76278C14.4679 8.88449 14.7792 8.9522 15.1061 8.9522C16.3947 8.9522 17.4431 7.90384 17.4431 6.61518C17.4431 5.32653 16.3947 4.27817 15.1061 4.27817Z" fill="#454545"/>
</g>
<defs>
<clipPath id="clip0_43_2639">
<rect width="18" height="18" fill="white" transform="translate(0.618652 3.05176e-05)"/>
</clipPath>
</defs>
</svg>
