<svg width="23" height="22" viewBox="0 0 23 22" fill="none" xmlns="http://www.w3.org/2000/svg">
<path d="M11.4835 19.6899C11.1439 19.6941 10.8069 19.6306 10.4922 19.5031C10.1774 19.3756 9.89117 19.1867 9.65018 18.9474L3.27935 12.5308C2.5215 11.79 1.97051 10.864 1.68107 9.84449C1.39164 8.82503 1.37381 7.7476 1.62935 6.71911C1.90038 5.7255 2.42206 4.81815 3.1444 4.08402C3.86675 3.34989 4.76554 2.81359 5.75464 2.52652C6.74374 2.23945 7.78999 2.21123 8.79313 2.44457C9.79626 2.67791 10.7227 3.16499 11.4835 3.85911C12.2444 3.16499 13.1708 2.67791 14.1739 2.44457C15.177 2.21123 16.2233 2.23945 17.2124 2.52652C18.2015 2.81359 19.1003 3.34989 19.8226 4.08402C20.545 4.81815 21.0667 5.7255 21.3377 6.71911C21.5984 7.75672 21.5805 8.84476 21.286 9.87327C20.9914 10.9018 20.4306 11.8343 19.6602 12.5766L13.2435 18.9933C12.7675 19.442 12.1377 19.6914 11.4835 19.6899ZM7.42268 3.66661C6.43099 3.66661 5.46604 3.98826 4.67268 4.58328C3.83383 5.19871 3.22932 6.08124 2.95852 7.08578C2.76102 7.88857 2.77909 8.72928 3.01088 9.52285C3.24267 10.3164 3.67997 11.0347 4.27852 11.6049L10.6952 18.0216C10.9168 18.2422 11.2167 18.366 11.5294 18.366C11.842 18.366 12.1419 18.2422 12.3635 18.0216L18.7802 11.6508C19.3713 11.0652 19.7965 10.3332 20.0123 9.52963C20.2281 8.72603 20.2268 7.87955 20.0085 7.07661C19.7382 6.07672 19.1373 5.19786 18.3035 4.58328C17.3562 3.89073 16.1835 3.57897 15.0173 3.70967C13.8511 3.84038 12.7765 4.40403 12.006 5.28911C11.9378 5.3584 11.8564 5.41343 11.7667 5.45099C11.677 5.48855 11.5808 5.50789 11.4835 5.50789C11.3863 5.50789 11.29 5.48855 11.2003 5.45099C11.1106 5.41343 11.0293 5.3584 10.961 5.28911C10.5228 4.77988 9.97981 4.37128 9.36913 4.09125C8.75845 3.81122 8.09451 3.66638 7.42268 3.66661Z" fill="white"/>
</svg>
