<svg width="23" height="22" viewBox="0 0 23 22" fill="none" xmlns="http://www.w3.org/2000/svg">
<path d="M11.7485 19.6899C11.409 19.6941 11.0719 19.6306 10.7572 19.5031C10.4424 19.3756 10.1562 19.1867 9.9152 18.9474L3.54437 12.5308C2.78651 11.79 2.23553 10.864 1.94609 9.84449C1.65665 8.82503 1.63882 7.7476 1.89437 6.71911C2.16539 5.7255 2.68708 4.81815 3.40942 4.08402C4.13176 3.34989 5.03055 2.81359 6.01965 2.52652C7.00875 2.23945 8.05501 2.21123 9.05814 2.44457C10.0613 2.67791 10.9877 3.16499 11.7485 3.85911C12.5094 3.16499 13.4358 2.67791 14.4389 2.44457C15.4421 2.21123 16.4883 2.23945 17.4774 2.52652C18.4665 2.81359 19.3653 3.34989 20.0876 4.08402C20.81 4.81815 21.3317 5.7255 21.6027 6.71911C21.8634 7.75672 21.8456 8.84476 21.551 9.87327C21.2565 10.9018 20.6956 11.8343 19.9252 12.5766L13.5085 18.9933C13.0326 19.442 12.4027 19.6914 11.7485 19.6899ZM7.6877 3.66661C6.696 3.66661 5.73106 3.98826 4.9377 4.58328C4.09884 5.19871 3.49433 6.08124 3.22353 7.08578C3.02604 7.88857 3.0441 8.72928 3.27589 9.52285C3.50768 10.3164 3.94498 11.0347 4.54353 11.6049L10.9602 18.0216C11.1818 18.2422 11.4817 18.366 11.7944 18.366C12.107 18.366 12.4069 18.2422 12.6285 18.0216L19.0452 11.6508C19.6363 11.0652 20.0615 10.3332 20.2773 9.52963C20.4931 8.72603 20.4918 7.87955 20.2735 7.07661C20.0033 6.07672 19.4023 5.19786 18.5685 4.58328C17.6212 3.89073 16.4485 3.57897 15.2823 3.70967C14.1161 3.84038 13.0415 4.40403 12.271 5.28911C12.2028 5.3584 12.1215 5.41343 12.0318 5.45099C11.9421 5.48855 11.8458 5.50789 11.7485 5.50789C11.6513 5.50789 11.555 5.48855 11.4653 5.45099C11.3756 5.41343 11.2943 5.3584 11.226 5.28911C10.7878 4.77988 10.2448 4.37128 9.63415 4.09125C9.02347 3.81122 8.35952 3.66638 7.6877 3.66661Z" fill="#959595"/>
</svg>
