<svg width="20" height="19" viewBox="0 0 20 19" fill="none" xmlns="http://www.w3.org/2000/svg">
<g clip-path="url(#clip0_4_330)">
<path d="M2.61434 10.0937H18.0732C18.3089 10.0937 18.5221 9.94878 18.6123 9.72731C18.7026 9.50525 18.6527 9.24994 18.4859 9.08012L11.4861 1.95512C11.2581 1.72297 10.8894 1.72297 10.6614 1.95512C10.4334 2.18728 10.4334 2.56253 10.6614 2.79469L16.6648 8.90615H2.61493C2.29193 8.90615 2.03127 9.17215 2.03127 9.4999C2.03127 9.82765 2.29193 10.0937 2.61434 10.0937Z" fill="#252525"/>
<path d="M11.0729 17.2187C11.2219 17.2187 11.3716 17.1605 11.4856 17.0447L16.1524 12.2947C16.3804 12.0625 16.3804 11.6873 16.1524 11.4551C15.9244 11.223 15.5557 11.223 15.3277 11.4551L10.6608 16.2051C10.4328 16.4373 10.4328 16.8125 10.6608 17.0447C10.7742 17.1605 10.9239 17.2187 11.0729 17.2187Z" fill="#252525"/>
</g>
<defs>
<clipPath id="clip0_4_330">
<rect width="19" height="19" fill="white" transform="matrix(-1 0 0 1 19.8438 0)"/>
</clipPath>
</defs>
</svg>
