<svg width="20" height="19" viewBox="0 0 20 19" fill="none" xmlns="http://www.w3.org/2000/svg">
<g clip-path="url(#clip0_4_342)">
<path d="M18.0732 10.0937H2.61429C2.37857 10.0937 2.16541 9.94878 2.07516 9.72731C1.98491 9.50525 2.03479 9.24994 2.20163 9.08012L9.20135 1.95512C9.42935 1.72297 9.79807 1.72297 10.0261 1.95512C10.2541 2.18728 10.2541 2.56253 10.0261 2.79469L4.02266 8.90615H18.0726C18.3956 8.90615 18.6562 9.17215 18.6562 9.4999C18.6562 9.82765 18.3956 10.0937 18.0732 10.0937Z" fill="#252525"/>
<path d="M9.61461 17.2187C9.46557 17.2187 9.31595 17.1605 9.20195 17.0447L4.53507 12.2947C4.30707 12.0625 4.30707 11.6873 4.53507 11.4551C4.76307 11.223 5.13179 11.223 5.35979 11.4551L10.0267 16.2051C10.2547 16.4373 10.2547 16.8125 10.0267 17.0447C9.91326 17.1605 9.76364 17.2187 9.61461 17.2187Z" fill="#252525"/>
</g>
<defs>
<clipPath id="clip0_4_342">
<rect width="19" height="19" fill="white" transform="translate(0.84375)"/>
</clipPath>
</defs>
</svg>
