<svg width="20" height="20" viewBox="0 0 20 20" fill="none" xmlns="http://www.w3.org/2000/svg">
<g clip-path="url(#clip0_36_424)">
<path d="M2.09868 10.5585H17.5576C17.7933 10.5585 18.0064 10.4136 18.0967 10.1922C18.1869 9.97009 18.1371 9.71478 17.9702 9.54497L10.9705 2.41997C10.7425 2.18781 10.3738 2.18781 10.1458 2.41997C9.91778 2.65212 9.91778 3.02737 10.1458 3.25953L16.1492 9.371H2.09927C1.77627 9.371 1.51562 9.637 1.51562 9.96475C1.51562 10.2925 1.77628 10.5585 2.09868 10.5585Z" fill="#252525"/>
<path d="M10.5572 17.6835C10.7063 17.6835 10.8559 17.6253 10.9699 17.5095L15.6368 12.7595C15.8648 12.5274 15.8648 12.1521 15.6368 11.92C15.4088 11.6878 15.0401 11.6878 14.8121 11.92L10.1452 16.67C9.91718 16.9021 9.91718 17.2774 10.1452 17.5095C10.2586 17.6253 10.4082 17.6835 10.5572 17.6835Z" fill="#252525"/>
</g>
<defs>
<clipPath id="clip0_36_424">
<rect width="19" height="19" fill="white" transform="matrix(-1 0 0 1 19.3281 0.464844)"/>
</clipPath>
</defs>
</svg>
