<svg width="20" height="20" viewBox="0 0 20 20" fill="none" xmlns="http://www.w3.org/2000/svg">
<g clip-path="url(#clip0_36_436)">
<path d="M17.5575 10.5585H2.09866C1.86294 10.5585 1.64979 10.4136 1.55954 10.1922C1.46929 9.97009 1.51916 9.71478 1.68601 9.54497L8.68573 2.41997C8.91373 2.18781 9.28244 2.18781 9.51044 2.41997C9.73844 2.65212 9.73844 3.02737 9.51044 3.25953L3.50704 9.371H17.5569C17.8799 9.371 18.1406 9.637 18.1406 9.96475C18.1406 10.2925 17.8799 10.5585 17.5575 10.5585Z" fill="#252525"/>
<path d="M9.09898 17.6835C8.94995 17.6835 8.80032 17.6253 8.68632 17.5095L4.01945 12.7595C3.79145 12.5274 3.79145 12.1521 4.01945 11.92C4.24745 11.6878 4.61617 11.6878 4.84417 11.92L9.51104 16.67C9.73904 16.9021 9.73904 17.2774 9.51104 17.5095C9.39764 17.6253 9.24801 17.6835 9.09898 17.6835Z" fill="#252525"/>
</g>
<defs>
<clipPath id="clip0_36_436">
<rect width="19" height="19" fill="white" transform="translate(0.328125 0.464844)"/>
</clipPath>
</defs>
</svg>
