<svg width="32" height="32" viewBox="0 0 32 32" fill="none" xmlns="http://www.w3.org/2000/svg">
<g clip-path="url(#clip0_43_4334)">
<path d="M29.0527 3.48145H26.4742V7.728H24.6169C24.4324 7.44939 24.2188 7.1871 23.9771 6.94539C23.8092 6.77747 23.6287 6.62066 23.4405 6.47923L22.8939 7.20673C23.0479 7.32262 23.1959 7.45105 23.3336 7.5887C24.107 8.36233 24.5329 9.39044 24.5329 10.4843C24.5329 11.3258 24.2799 12.1281 23.8113 12.8059C23.581 11.9282 23.0164 11.1733 22.2274 10.704C22.3442 10.4526 22.4098 10.1728 22.4098 9.87766V9.271C22.4098 8.18376 21.5252 7.29945 20.4382 7.29945C19.351 7.29945 18.4664 8.18376 18.4664 9.271V9.87766C18.4664 10.1728 18.5322 10.4526 18.6488 10.704C17.8598 11.1733 17.2952 11.9282 17.0648 12.8059C16.5963 12.1281 16.3432 11.3258 16.3432 10.4843C16.3432 9.39044 16.7692 8.36233 17.5426 7.5887C18.316 6.81554 19.3443 6.38935 20.4382 6.38935C21.0434 6.38935 21.651 6.52582 22.1948 6.78409L22.585 5.96198C21.9202 5.64623 21.1778 5.47949 20.4382 5.47949C19.1012 5.47949 17.8444 6.00005 16.899 6.94539C16.6573 7.1871 16.4438 7.44939 16.2593 7.728H5.78751V3.48145H3.20907C1.7874 3.48145 0.630859 4.63799 0.630859 6.05965V17.8287H1.54095V6.05965C1.54095 5.13986 2.28928 4.39154 3.20907 4.39154H4.87742V23.5009H3.20907C2.57333 23.5009 1.9908 23.7322 1.54095 24.1149V18.7388H0.630859V26.0794C0.630859 27.5011 1.7874 28.6576 3.20907 28.6576H6.30311V27.7475H3.20907C2.28928 27.7475 1.54095 26.9992 1.54095 26.0794C1.54095 25.1594 2.28928 24.411 3.20907 24.411H5.78751V8.6381H15.7846C15.5547 9.21803 15.4332 9.84171 15.4332 10.4843C15.4332 11.8211 15.9537 13.0781 16.899 14.0232L20.4382 17.5624L23.9771 14.0232C24.9225 13.0781 25.443 11.8211 25.443 10.4843C25.443 9.84171 25.3214 9.21803 25.0916 8.6381H26.4742V12.4296H27.3843V4.39154H29.0527C29.9724 4.39154 30.7208 5.13986 30.7208 6.05965V24.1149C30.2709 23.7322 29.6884 23.5009 29.0527 23.5009H27.3843V13.3395H26.4742V24.411H29.0527C29.9724 24.411 30.7208 25.1594 30.7208 26.0794C30.7208 26.9992 29.9724 27.7475 29.0527 27.7475H7.21297V28.6576H29.0527C30.4743 28.6576 31.6309 27.5011 31.6309 26.0794V6.05965C31.6309 4.63799 30.4743 3.48145 29.0527 3.48145ZM19.3765 9.271C19.3765 8.68564 19.8528 8.2093 20.4382 8.2093C21.0236 8.2093 21.4997 8.68564 21.4997 9.271V9.87766C21.4997 10.463 21.0236 10.9394 20.4382 10.9394C19.8528 10.9394 19.3765 10.463 19.3765 9.87766V9.271ZM20.4382 16.2755L17.86 13.6971C17.8607 12.7349 18.3862 11.8717 19.2202 11.4263C19.5558 11.6908 19.9787 11.8492 20.4382 11.8492C20.8975 11.8492 21.3204 11.6908 21.656 11.4263C22.4899 11.8717 23.0155 12.7349 23.0164 13.6971L20.4382 16.2755Z" fill="black"/>
<path d="M11.6414 21.681H21.2873C22.2405 21.681 23.0162 22.4567 23.0162 23.4101C23.0162 24.3633 22.2405 25.139 21.2873 25.139H11.3988V26.0489H21.2873C22.7423 26.0489 23.9261 24.8651 23.9261 23.4101C23.9261 21.9549 22.7423 20.7711 21.2873 20.7711H11.6414C10.8219 20.7711 10.1552 20.1044 10.1552 19.2849C10.1552 18.4651 10.8219 17.7984 11.6414 17.7984H18.2541V16.8885H11.6414C10.3201 16.8885 9.24512 17.9635 9.24512 19.2849C9.24512 20.606 10.3201 21.681 11.6414 21.681Z" fill="black"/>
<path d="M28.8398 9.21423H29.7497V10.1243H28.8398V9.21423Z" fill="black"/>
<path d="M28.8398 5.87781H29.7497V8.30441H28.8398V5.87781Z" fill="black"/>
<path d="M7.75879 25.139H8.66865V26.0489H7.75879V25.139Z" fill="black"/>
<path d="M9.5791 25.139H10.489V26.0489H9.5791V25.139Z" fill="black"/>
<path d="M8.97227 9.54797H6.69727V11.823H7.60736V10.4581H8.97227V9.54797Z" fill="black"/>
<path d="M6.69727 12.7328H7.60736V13.6429H6.69727V12.7328Z" fill="black"/>
<path d="M9.88184 9.54797H10.7919V10.4581H9.88184V9.54797Z" fill="black"/>
</g>
<defs>
<clipPath id="clip0_43_4334">
<rect width="31" height="31" fill="white" transform="translate(0.630859 0.575195)"/>
</clipPath>
</defs>
</svg>
