<svg width="30" height="30" viewBox="0 0 30 30" fill="none" xmlns="http://www.w3.org/2000/svg">
<g clip-path="url(#clip0_43_4279)">
<path fill-rule="evenodd" clip-rule="evenodd" d="M16.8895 7.97079C16.7604 7.97079 16.6362 7.91803 16.5436 7.82053C16.4664 7.7393 16.4185 7.64353 16.3308 7.46968C16.1765 7.16276 15.8891 6.59023 15.2946 5.83745C15.0486 5.52565 14.9495 5.41925 14.8797 5.35027C14.8253 5.2967 14.6864 5.16677 14.4866 5.01976C14.3356 5.19762 14.1626 5.34783 13.9694 5.468C13.3952 5.82612 12.8309 5.81229 12.3769 5.80177L12.3453 5.80095C12.3315 5.80095 10.9461 5.76929 9.4674 5.87161C8.42065 5.9439 8.11373 6.07133 7.88961 6.19481C7.68577 6.30765 7.30656 6.51718 7.13195 6.90534C7.05641 7.07263 7.0345 7.23662 7.01584 7.36817C7.00608 7.44127 6.99714 7.50461 6.98011 7.56789C6.9062 7.83913 6.69829 7.95117 6.52862 7.96494C6.42629 7.97389 6.1705 7.95925 5.99675 7.64094C5.95294 7.56057 5.91064 7.45581 5.87171 7.33076C5.80024 7.10339 5.74259 6.81913 5.71336 6.55038C5.60377 5.55559 5.86764 4.74033 6.03412 4.34323C6.14208 4.08581 6.46696 3.41671 7.14577 2.75975C8.32158 1.62369 9.72644 1.33217 10.6563 1.1389C11.4318 0.978119 11.9742 0.954583 12.6563 0.939181C13.1874 0.926981 13.8151 0.949754 14.4501 1.21281C14.7749 1.34676 15.0121 1.50678 15.1972 1.71631C15.3385 1.87709 15.3953 2.003 15.4611 2.14833C15.4952 2.22306 15.5333 2.3083 15.595 2.42685C15.7493 2.72 15.8427 2.89781 15.9969 3.05778C16.0667 3.13006 16.0936 3.14551 16.1926 3.20392C16.2982 3.26645 16.4427 3.35093 16.6831 3.53118C16.9787 3.75286 17.1744 3.89987 17.3856 4.15403C17.5204 4.31726 17.8021 4.65666 17.9134 5.16097C17.9849 5.48254 17.9516 5.73589 17.8963 6.15577C17.8606 6.42701 17.677 6.92476 17.6211 7.07014C17.3839 7.69299 17.2638 7.87324 17.038 7.94634C16.9902 7.96271 16.939 7.97079 16.8895 7.97079ZM14.3754 3.9569C14.6004 3.9569 14.7953 4.09334 14.9187 4.17945L14.9316 4.1884C15.2264 4.393 15.4359 4.58545 15.5342 4.68213C15.6405 4.78608 15.7656 4.92414 16.0295 5.25791C16.3998 5.72725 16.6621 6.13248 16.8505 6.4573C16.9122 6.27781 16.9601 6.11546 16.9706 6.03422C17.021 5.64688 17.0356 5.51695 17.0015 5.36268C16.939 5.07923 16.7749 4.88195 16.667 4.75121C16.5265 4.58148 16.3917 4.48083 16.1237 4.27939C15.9256 4.13075 15.8119 4.06335 15.7202 4.00977C15.5984 3.9383 15.4838 3.87095 15.3255 3.7061C15.0786 3.45031 14.9422 3.19045 14.7692 2.86156C14.6937 2.71781 14.6458 2.61066 14.6101 2.53268C14.5557 2.41251 14.5443 2.38816 14.4972 2.33458C14.438 2.26718 14.3389 2.17782 14.0944 2.07635C13.621 1.88065 13.1346 1.86357 12.679 1.87338C12.0269 1.88797 11.547 1.90912 10.8478 2.05363C9.97404 2.23475 8.7779 2.48322 7.79699 3.43165C7.22695 3.98303 6.96384 4.54493 6.89725 4.70414C6.79167 4.95505 6.63821 5.41549 6.62438 5.99122C6.70317 5.90272 6.79005 5.81824 6.88587 5.7395C7.09941 5.5625 7.31057 5.44553 7.43725 5.37569C7.83267 5.1564 8.28178 5.01513 9.40324 4.93721C10.9274 4.83163 12.3104 4.8633 12.3681 4.86492L12.4005 4.86574C12.7797 4.87468 13.1387 4.88358 13.4741 4.6741C13.6494 4.5645 13.7997 4.4086 13.9199 4.21041C13.9955 4.08536 14.1156 3.99925 14.2593 3.96839C14.2991 3.96011 14.3373 3.9569 14.3754 3.9569Z" fill="black"/>
<path fill-rule="evenodd" clip-rule="evenodd" d="M11.8279 15.7584C11.5136 15.7584 11.1564 15.7283 10.7715 15.643C10.4288 15.5675 9.53641 15.3142 8.66016 14.5963C8.24033 14.252 7.46971 13.4927 7.03199 12.2747C6.91264 11.9425 6.83466 11.5853 6.78998 11.3408C6.48382 11.2036 6.20286 10.9965 5.96492 10.731C5.66124 10.3916 5.44927 9.9807 5.35264 9.54298C5.15612 8.65301 5.45822 7.7792 6.18172 7.14745C6.37661 6.97772 6.6722 6.99719 6.84188 7.19213C7.01161 7.38702 6.99214 7.68262 6.7972 7.85229C6.16947 8.40042 6.19468 9.02083 6.2661 9.34159C6.39278 9.91487 6.82394 10.4005 7.33882 10.5499C7.51668 10.6019 7.64737 10.7529 7.67172 10.9365C7.70746 11.1988 7.79108 11.6242 7.91211 11.9596C8.2873 13.0039 8.97507 13.6462 9.25276 13.8744C9.97306 14.464 10.6958 14.6703 10.9727 14.7319C11.762 14.9057 12.4125 14.7912 12.6561 14.7335C13.3203 14.5768 13.7677 14.2682 13.9594 14.1367C14.0975 14.0417 14.458 13.7737 14.825 13.3392C15.3553 12.7115 15.7459 11.858 15.957 10.8698C15.9968 10.6822 16.1478 10.5376 16.3371 10.506C16.5433 10.471 16.7683 10.2932 16.9534 10.0188C17.1548 9.71912 17.2856 9.34235 17.3115 8.98586C17.3392 8.60421 17.2629 8.11373 16.7399 7.94562C16.4939 7.86683 16.359 7.60296 16.4378 7.35688C16.5166 7.11085 16.7805 6.97604 17.0266 7.05483C17.4699 7.19777 17.815 7.48117 18.0238 7.87578C18.2 8.20792 18.2763 8.61473 18.2447 9.05245C18.2073 9.56647 18.0197 10.1089 17.7298 10.5401C17.4741 10.9202 17.1549 11.1946 16.8098 11.3367C16.554 12.3721 16.1277 13.2475 15.5406 13.9425C15.1167 14.4444 14.7009 14.7619 14.4906 14.9064C14.2762 15.0534 13.707 15.4456 12.8722 15.6429C12.6473 15.695 12.2827 15.7584 11.8279 15.7584Z" fill="black"/>
<path fill-rule="evenodd" clip-rule="evenodd" d="M9.03056 17.5504C8.96071 17.5504 8.89006 17.535 8.8227 17.5018C8.59126 17.3873 8.49626 17.1063 8.61155 16.8749C8.7553 16.585 8.99889 16.0036 9.01597 15.3644C9.02248 15.1135 8.98999 14.999 8.93637 14.8082C8.92178 14.757 8.90551 14.6986 8.88843 14.6344C8.82428 14.3843 8.9753 14.1293 9.22545 14.0652C9.47555 14.001 9.73057 14.152 9.79472 14.4022C9.80855 14.4541 9.82233 14.5045 9.83615 14.5532C9.89786 14.7709 9.96201 14.9958 9.95149 15.3888C9.9304 16.2074 9.6283 16.9317 9.45049 17.2898C9.36839 17.4554 9.20268 17.5504 9.03056 17.5504Z" fill="black"/>
<path fill-rule="evenodd" clip-rule="evenodd" d="M14.6988 17.8575C14.5397 17.8575 14.3854 17.7762 14.2977 17.6309C13.9891 17.1177 13.6164 16.3122 13.592 15.3896C13.5814 14.9958 13.6455 14.7709 13.7073 14.5541C13.7211 14.5054 13.7349 14.4558 13.7487 14.403C13.8129 14.1529 14.0679 14.0019 14.318 14.066C14.5682 14.1302 14.7192 14.3851 14.655 14.6353C14.6388 14.6986 14.6217 14.7571 14.6071 14.809C14.5535 14.9991 14.5202 15.1143 14.5275 15.3653C14.5462 16.0848 14.8491 16.7328 15.0992 17.1494C15.2323 17.371 15.1609 17.6585 14.9392 17.7909C14.8637 17.8356 14.7808 17.8575 14.6988 17.8575Z" fill="black"/>
<path fill-rule="evenodd" clip-rule="evenodd" d="M23.5309 29.2675H0.598778C0.341362 29.2675 0.13183 29.0588 0.131068 28.8014C0.126188 27.1708 0.200911 23.0952 1.01377 20.4739C1.22981 19.7788 1.49124 19.2112 1.83635 18.6882C2.12624 18.2497 2.96269 17.147 4.45681 16.3877C5.82594 15.691 7.13579 15.5878 7.99328 15.6236C8.10537 15.6285 8.21257 15.6731 8.29375 15.7503L11.9667 19.199L15.8425 15.7429C15.9229 15.6706 16.026 15.6292 16.1349 15.6243C16.9924 15.5886 18.3014 15.6925 19.6713 16.3885C21.1655 17.1485 22.0019 18.2505 22.2918 18.689C22.6377 19.2119 22.8992 19.7788 23.1144 20.4747C23.4879 21.6773 23.7478 23.3225 23.8874 25.3623C23.963 26.4635 24.0012 27.6523 23.997 28.8014C23.9979 29.0596 23.7884 29.2675 23.5309 29.2675ZM12.0364 28.3321H23.0624C23.0559 27.3527 23.0193 26.3572 22.9552 25.4266C22.8204 23.4582 22.5735 21.8852 22.2219 20.7516C22.0302 20.1353 21.8118 19.6578 21.5121 19.2046C21.2629 18.8278 20.5434 17.8802 19.2473 17.2217C18.143 16.6597 17.0816 16.542 16.3386 16.5534L12.2703 20.1807C12.0892 20.3415 11.8155 20.3382 11.6385 20.1726L7.7837 16.5525C7.04149 16.5427 5.98342 16.6605 4.88142 17.2208C3.58539 17.8793 2.86596 18.827 2.61663 19.2038C2.31697 19.6569 2.09854 20.1335 1.9069 20.7499C1.55529 21.8835 1.3084 23.4565 1.17359 25.4249C1.10944 26.3555 1.07289 27.351 1.06639 28.3303L12.0364 28.3321Z" fill="black"/>
<path fill-rule="evenodd" clip-rule="evenodd" d="M5.03705 29.2674C4.77882 29.2674 4.56934 29.0579 4.56934 28.7997V23.4053C4.56934 23.1471 4.77887 22.9376 5.03705 22.9376C5.29522 22.9376 5.50476 23.1471 5.50476 23.4053V28.7997C5.50486 29.058 5.29533 29.2674 5.03705 29.2674Z" fill="black"/>
<path fill-rule="evenodd" clip-rule="evenodd" d="M19.4687 29.2674C19.2105 29.2674 19.001 29.0579 19.001 28.7997V23.4053C19.001 23.1471 19.2105 22.9376 19.4687 22.9376C19.7269 22.9376 19.9364 23.1471 19.9364 23.4053V28.7997C19.9364 29.058 19.7269 29.2674 19.4687 29.2674Z" fill="black"/>
<path fill-rule="evenodd" clip-rule="evenodd" d="M21.3505 15.7696C21.0923 15.7696 20.8828 15.5601 20.8828 15.3019V2.03717C20.8828 1.77894 21.0923 1.56946 21.3505 1.56946C21.6088 1.56946 21.8182 1.77899 21.8182 2.03717V15.3019C21.8183 15.5601 21.6088 15.7696 21.3505 15.7696Z" fill="black"/>
<path fill-rule="evenodd" clip-rule="evenodd" d="M28.663 9.29529H21.3505C21.0923 9.29529 20.8828 9.08581 20.8828 8.82758V3.18873C20.8828 3.0101 20.9843 2.84769 21.1443 2.7689C21.3043 2.69011 21.4951 2.70963 21.6364 2.81846L28.9489 8.45726C29.1072 8.57906 29.1705 8.7894 29.1056 8.9786C29.0414 9.16785 28.8628 9.29529 28.663 9.29529ZM21.8183 8.35982H27.2906L21.8183 4.14047V8.35982Z" fill="black"/>
<path fill-rule="evenodd" clip-rule="evenodd" d="M14.3784 27.5752H9.51263C9.2544 27.5752 9.04492 27.3657 9.04492 27.1075V21.3818C9.04492 21.1235 9.2544 20.9141 9.51263 20.9141H14.3784C14.6367 20.9141 14.8461 21.1235 14.8461 21.3818V27.1075C14.8461 27.3665 14.6375 27.5752 14.3784 27.5752ZM9.98121 26.6397H13.9115V21.8495H9.98121V26.6397Z" fill="black"/>
<path fill-rule="evenodd" clip-rule="evenodd" d="M12.7976 23.3307H11.0947C10.8364 23.3307 10.627 23.1212 10.627 22.863C10.627 22.6047 10.8364 22.3953 11.0947 22.3953H12.7976C13.0558 22.3953 13.2653 22.6047 13.2653 22.863C13.2653 23.1212 13.0558 23.3307 12.7976 23.3307Z" fill="black"/>
<path fill-rule="evenodd" clip-rule="evenodd" d="M12.7976 24.7128H11.0947C10.8364 24.7128 10.627 24.5033 10.627 24.2451C10.627 23.9868 10.8364 23.7773 11.0947 23.7773H12.7976C13.0558 23.7773 13.2653 23.9868 13.2653 24.2451C13.2653 24.5033 13.0558 24.7128 12.7976 24.7128Z" fill="black"/>
<path fill-rule="evenodd" clip-rule="evenodd" d="M12.7976 26.0948H11.0947C10.8364 26.0948 10.627 25.8854 10.627 25.6271C10.627 25.3689 10.8364 25.1594 11.0947 25.1594H12.7976C13.0558 25.1594 13.2653 25.3689 13.2653 25.6271C13.2653 25.8854 13.0558 26.0948 12.7976 26.0948Z" fill="black"/>
<path fill-rule="evenodd" clip-rule="evenodd" d="M9.51311 21.8494C9.35396 21.8494 9.19882 21.7682 9.11118 21.622L6.00918 16.4485C5.87599 16.2268 5.94828 15.9393 6.16996 15.8069C6.39164 15.6737 6.6791 15.746 6.81152 15.9677L9.91352 21.1412C10.0467 21.3629 9.97442 21.6504 9.75274 21.7828C9.67796 21.8283 9.59511 21.8494 9.51311 21.8494Z" fill="black"/>
<path fill-rule="evenodd" clip-rule="evenodd" d="M14.3787 21.8494C14.2967 21.8494 14.2139 21.8283 14.1383 21.7829C13.9167 21.6497 13.8452 21.363 13.9776 21.1413L17.0796 15.9678C17.2127 15.7461 17.4994 15.6747 17.7211 15.807C17.9428 15.9402 18.0143 16.2269 17.8819 16.4486L14.7799 21.6221C14.693 21.7682 14.5379 21.8494 14.3787 21.8494Z" fill="black"/>
</g>
<defs>
<clipPath id="clip0_43_4279">
<rect width="29" height="29" fill="white" transform="translate(0.130859 0.602051)"/>
</clipPath>
</defs>
</svg>
