<svg width="27" height="26" viewBox="0 0 27 26" fill="none" xmlns="http://www.w3.org/2000/svg">
<g clip-path="url(#clip0_43_4344)">
<path d="M21.3218 24.0638C21.2067 24.0638 21.0938 24.0204 21.01 23.9387L15.944 19.0324H3.0359C1.43393 19.0324 0.130859 17.7795 0.130859 16.2391V4.33823C0.130859 2.79788 1.43393 1.54492 3.0359 1.54492H23.2259C24.8278 1.54492 26.1309 2.79788 26.1309 4.33823V16.2392C26.1309 17.7795 24.8278 19.0325 23.2259 19.0325H21.7519L21.7615 23.5946C21.7637 23.6101 21.7637 23.6256 21.7637 23.6411C21.7637 23.8737 21.568 24.0629 21.3251 24.0629C21.3239 24.0638 21.3228 24.0638 21.3218 24.0638ZM3.0359 2.38853C1.91777 2.38853 1.00924 3.26311 1.00924 4.33823V16.2392C1.00924 17.3143 1.9188 18.1879 3.0359 18.1879H16.1267C16.244 18.1879 16.3557 18.2323 16.4385 18.313L20.881 22.6155L20.8724 18.6106C20.8724 18.499 20.9186 18.3905 21.0004 18.3119C21.0832 18.2323 21.195 18.1878 21.3111 18.1878H23.2259C24.3441 18.1878 25.2536 17.3133 25.2536 16.2391V4.33823C25.2536 3.26311 24.3441 2.38853 23.2259 2.38853H3.0359Z" fill="black"/>
<path d="M8.34504 11.9697C7.37421 11.9697 6.58398 11.2098 6.58398 10.2763C6.58398 9.34284 7.37421 8.58301 8.34504 8.58301C9.31586 8.58301 10.1061 9.34284 10.1061 10.2763C10.1061 11.2098 9.31701 11.9697 8.34504 11.9697ZM8.34504 9.42761C7.858 9.42761 7.46237 9.80802 7.46237 10.2763C7.46237 10.7446 7.858 11.1251 8.34504 11.1251C8.83208 11.1251 9.22771 10.7446 9.22771 10.2763C9.22886 9.80802 8.83208 9.42761 8.34504 9.42761Z" fill="black"/>
<path d="M13.1312 11.9697C12.1603 11.9697 11.3701 11.2098 11.3701 10.2763C11.3701 9.34284 12.1603 8.58301 13.1312 8.58301C14.102 8.58301 14.8922 9.34284 14.8922 10.2763C14.8912 11.2099 14.1021 11.9697 13.1312 11.9697ZM13.1312 9.42761C12.6441 9.42761 12.2485 9.80802 12.2485 10.2763C12.2485 10.7446 12.6441 11.1251 13.1312 11.1251C13.6182 11.1251 14.0138 10.7446 14.0138 10.2763C14.0139 9.80802 13.6171 9.42761 13.1312 9.42761Z" fill="black"/>
<path d="M17.9173 11.9697C16.9465 11.9697 16.1562 11.2098 16.1562 10.2763C16.1562 9.34284 16.9465 8.58301 17.9173 8.58301C18.8881 8.58301 19.6784 9.34284 19.6784 10.2763C19.6773 11.2099 18.8882 11.9697 17.9173 11.9697ZM17.9173 9.42761C17.4303 9.42761 17.0346 9.80802 17.0346 10.2763C17.0346 10.7446 17.4303 11.1251 17.9173 11.1251C18.4043 11.1251 18.8 10.7446 18.8 10.2763C18.8 9.80802 18.4033 9.42761 17.9173 9.42761Z" fill="black"/>
</g>
<defs>
<clipPath id="clip0_43_4344">
<rect width="26" height="25" fill="white" transform="translate(0.130859 0.304443)"/>
</clipPath>
</defs>
</svg>
