<svg width="23" height="24" viewBox="0 0 23 24" fill="none" xmlns="http://www.w3.org/2000/svg">
<g clip-path="url(#clip0_57_3865)">
<path d="M11.5001 0.704102C17.8513 0.704102 23 5.85278 23 12.204C23 18.5553 17.8513 23.7042 11.5001 23.7042C5.14882 23.7042 -7.05719e-05 18.5553 -7.05719e-05 12.204C0.00708961 5.85573 5.15156 0.711261 11.5001 0.704102ZM11.5001 22.554C17.2162 22.554 21.8501 17.9202 21.8501 12.204C21.8501 6.48786 17.2162 1.85403 11.5001 1.85403C5.7839 1.85403 1.15007 6.48786 1.15007 12.204C1.1566 17.9175 5.78664 22.5475 11.5001 22.554Z" fill="#1E1E1E"/>
<path d="M12.847 7.74623C13.0862 7.53714 13.4494 7.56156 13.6585 7.80056C13.8674 8.03977 13.843 8.403 13.604 8.6121L9.49867 12.204L13.6042 15.7962C13.8434 16.0053 13.8676 16.3685 13.6587 16.6075C13.4496 16.8467 13.0864 16.8711 12.8472 16.662L8.24725 12.637C8.12238 12.5279 8.05078 12.37 8.05078 12.204C8.05078 12.0381 8.12238 11.8804 8.24725 11.7711L12.847 7.74623Z" fill="#1E1E1E"/>
</g>
<defs>
<clipPath id="clip0_57_3865">
<rect width="23" height="23" fill="white" transform="matrix(-1 0 0 1 23 0.704102)"/>
</clipPath>
</defs>
</svg>
