<svg width="25" height="25" viewBox="0 0 25 25" fill="none" xmlns="http://www.w3.org/2000/svg">
<path d="M18.6634 23.3429H6.96338C4.48838 23.3429 2.46338 21.3179 2.46338 18.8429V18.6929L2.91338 6.6929C2.98838 4.2179 5.01338 2.3429 7.41338 2.3429H18.2134C20.6134 2.3429 22.6384 4.2179 22.7134 6.6929L23.1634 18.6929C23.2384 19.8929 22.7884 21.0179 21.9634 21.9179C21.1384 22.8179 20.0134 23.3429 18.8134 23.3429C18.8134 23.3429 18.7384 23.3429 18.6634 23.3429ZM7.41338 3.8429C5.76338 3.8429 4.48838 5.1179 4.41338 6.6929L3.96338 18.8429C3.96338 20.4929 5.31338 21.8429 6.96338 21.8429H18.8134C19.6384 21.8429 20.3884 21.4679 20.9134 20.8679C21.4384 20.2679 21.7384 19.5179 21.7384 18.6929L21.2884 6.6929C21.2134 5.0429 19.9384 3.8429 18.2884 3.8429H7.41338Z" fill="#252525"/>
<path d="M12.8135 11.3429C9.88848 11.3429 7.56348 9.0179 7.56348 6.0929C7.56348 5.6429 7.86348 5.3429 8.31348 5.3429C8.76348 5.3429 9.06348 5.6429 9.06348 6.0929C9.06348 8.1929 10.7135 9.8429 12.8135 9.8429C14.9135 9.8429 16.5635 8.1929 16.5635 6.0929C16.5635 5.6429 16.8635 5.3429 17.3135 5.3429C17.7635 5.3429 18.0635 5.6429 18.0635 6.0929C18.0635 9.0179 15.7385 11.3429 12.8135 11.3429Z" fill="#252525"/>
</svg>
