<svg width="16" height="16" viewBox="0 0 16 16" fill="none" xmlns="http://www.w3.org/2000/svg">
<g clip-path="url(#clip0_54_937)">
<path d="M3.7842 4.06733H3.9988C4.32493 4.06733 4.5893 3.80287 4.5893 3.47683V1.84729V1.23777C4.5893 0.911722 4.32493 0.647293 3.9988 0.647293H3.7842C3.45809 0.647293 3.19373 0.911722 3.19373 1.23777V1.84732V3.47683C3.19373 3.80287 3.45809 4.06733 3.7842 4.06733Z" fill="#656565"/>
<path d="M11.3582 4.0527H11.5728C11.8989 4.0527 12.1633 3.78827 12.1633 3.46219V1.69263V1.2231C12.1633 0.897089 11.8989 0.63266 11.5728 0.63266H11.3582C11.0321 0.63266 10.7677 0.897089 10.7677 1.2231V1.69263V3.46216C10.7678 3.78827 11.0321 4.0527 11.3582 4.0527Z" fill="#656565"/>
<path d="M14.1588 1.84729H12.6433V3.61682C12.6433 4.20711 12.1631 4.53269 11.5729 4.53269H11.3583C10.768 4.53269 10.2878 4.05245 10.2878 3.46216V1.84729H5.06937V3.47679C5.06937 4.06708 4.58916 4.54732 3.99888 4.54732H3.78428C3.19402 4.54732 2.71382 4.06708 2.71382 3.47679V1.84729H1.07875C0.549426 1.84729 0.118774 2.27794 0.118774 2.80729V14.4073C0.118774 14.9367 0.549426 15.3673 1.07875 15.3673H14.1588C14.6882 15.3673 15.1188 14.9367 15.1188 14.4073V2.80729C15.1188 2.27797 14.6882 1.84729 14.1588 1.84729ZM14.1588 14.4073H1.07878L1.07875 5.64728H14.159L14.1595 14.4073C14.1595 14.4073 14.1593 14.4073 14.1588 14.4073Z" fill="#656565"/>
<path d="M8.11432 8.58566H9.83801C9.90634 8.58566 9.96174 8.53027 9.96174 8.46194V6.96937C9.96174 6.90104 9.90634 6.84564 9.83801 6.84564H8.11432C8.046 6.84564 7.9906 6.90104 7.9906 6.96937V8.46194C7.9906 8.53027 8.046 8.58566 8.11432 8.58566Z" fill="#656565"/>
<path d="M10.9274 8.58566H12.6511C12.7195 8.58566 12.7748 8.53027 12.7748 8.46194V6.96937C12.7748 6.90104 12.7195 6.84564 12.6511 6.84564H10.9274C10.8591 6.84564 10.8037 6.90104 10.8037 6.96937V8.46194C10.8037 8.53027 10.8591 8.58566 10.9274 8.58566Z" fill="#656565"/>
<path d="M2.48847 11.0292H4.21213C4.28046 11.0292 4.33585 10.9738 4.33585 10.9055V9.41288C4.33585 9.34455 4.28046 9.28915 4.21213 9.28915H2.48847C2.42014 9.28915 2.36475 9.34455 2.36475 9.41288V10.9055C2.36475 10.9738 2.42014 11.0292 2.48847 11.0292Z" fill="#656565"/>
<path d="M5.30146 11.0292H7.02512C7.09344 11.0292 7.14884 10.9738 7.14884 10.9055V9.41288C7.14884 9.34455 7.09344 9.28915 7.02512 9.28915H5.30146C5.23313 9.28915 5.17773 9.34455 5.17773 9.41288V10.9055C5.17773 10.9738 5.23313 11.0292 5.30146 11.0292Z" fill="#656565"/>
<path d="M8.11445 11.0292H9.83811C9.90643 11.0292 9.96183 10.9738 9.96183 10.9055V9.41288C9.96183 9.34455 9.90643 9.28915 9.83811 9.28915H8.11445C8.04612 9.28915 7.99072 9.34455 7.99072 9.41288V10.9055C7.99072 10.9738 8.04612 11.0292 8.11445 11.0292Z" fill="#656565"/>
<path d="M10.9274 11.0292H12.6511C12.7195 11.0292 12.7748 10.9738 12.7748 10.9055V9.41288C12.7748 9.34455 12.7195 9.28915 12.6511 9.28915H10.9274C10.8591 9.28915 10.8037 9.34455 10.8037 9.41288V10.9055C10.8037 10.9738 10.8591 11.0292 10.9274 11.0292Z" fill="#656565"/>
<path d="M4.2121 11.7327H2.48847C2.42014 11.7327 2.36475 11.7881 2.36475 11.8564V13.349C2.36475 13.4174 2.42014 13.4727 2.48847 13.4727H4.21213C4.28046 13.4727 4.33585 13.4174 4.33585 13.349V11.8564C4.33582 11.7881 4.28042 11.7327 4.2121 11.7327Z" fill="#656565"/>
<path d="M7.02512 11.7327H5.30146C5.23313 11.7327 5.17773 11.7881 5.17773 11.8564V13.349C5.17773 13.4174 5.23313 13.4727 5.30146 13.4727H7.02512C7.09344 13.4727 7.14884 13.4174 7.14884 13.349V11.8564C7.14884 11.7881 7.09344 11.7327 7.02512 11.7327Z" fill="#656565"/>
<path d="M9.83814 11.7327H8.11445C8.04612 11.7327 7.99072 11.7881 7.99072 11.8564V13.349C7.99072 13.4174 8.04612 13.4727 8.11445 13.4727H9.83814C9.90646 13.4727 9.96186 13.4174 9.96186 13.349V11.8564C9.96186 11.7881 9.90646 11.7327 9.83814 11.7327Z" fill="#656565"/>
<path d="M12.6511 11.7327H10.9274C10.8591 11.7327 10.8037 11.7881 10.8037 11.8564V13.349C10.8037 13.4174 10.8591 13.4727 10.9274 13.4727H12.6511C12.7195 13.4727 12.7748 13.4174 12.7748 13.349V11.8564C12.7748 11.7881 12.7195 11.7327 12.6511 11.7327Z" fill="#656565"/>
</g>
<defs>
<clipPath id="clip0_54_937">
<rect width="15" height="15" fill="white" transform="translate(0.118774 0.5)"/>
</clipPath>
</defs>
</svg>
