<svg width="10" height="13" viewBox="0 0 10 13" fill="none" xmlns="http://www.w3.org/2000/svg">
<g clip-path="url(#clip0_5_633)">
<path d="M4.55582 0.25C2.07074 0.25 0.0558167 2.26492 0.0558167 4.75C0.0558167 6.5643 0.687926 7.07102 4.0941 12.0086C4.31748 12.3313 4.79511 12.3313 5.01847 12.0086C8.423 7.07031 9.05582 6.56406 9.05582 4.75C9.05582 2.26492 7.04019 0.25 4.55582 0.25ZM4.55582 6.60391C3.52152 6.60391 2.68082 5.76297 2.68082 4.72891C2.68082 3.69484 3.52222 2.85391 4.55582 2.85391C5.58941 2.85391 6.43082 3.69484 6.43082 4.72891C6.43082 5.76297 5.58941 6.60391 4.55582 6.60391Z" fill="#252525"/>
</g>
<defs>
<clipPath id="clip0_5_633">
<rect width="9" height="12" fill="white" transform="translate(0.0558167 0.25)"/>
</clipPath>
</defs>
</svg>
