<svg width="19" height="18" viewBox="0 0 19 18" fill="none" xmlns="http://www.w3.org/2000/svg">
<path d="M9.74831 16.9934C9.6744 16.9938 9.60117 16.9799 9.53291 16.9526C9.46465 16.9252 9.40274 16.885 9.35081 16.8343L5.03081 12.6686C4.0966 11.7687 3.46018 10.6218 3.20207 9.37306C2.94395 8.1243 3.07574 6.82977 3.58075 5.65325C4.08576 4.47673 4.94131 3.47107 6.03916 2.76352C7.13701 2.05596 8.42782 1.67829 9.74831 1.67829C11.0688 1.67829 12.3596 2.05596 13.4575 2.76352C14.5553 3.47107 15.4109 4.47673 15.9159 5.65325C16.4209 6.82977 16.5527 8.1243 16.2945 9.37306C16.0364 10.6218 15.4 11.7687 14.4658 12.6686L10.1458 16.8343C10.0939 16.885 10.032 16.9252 9.9637 16.9526C9.89544 16.9799 9.82221 16.9938 9.74831 16.9934ZM9.74831 2.76781C8.65118 2.76855 7.5789 3.08283 6.66692 3.67094C5.75494 4.25906 5.04419 5.09461 4.62444 6.07206C4.20469 7.04951 4.09479 8.125 4.30862 9.16265C4.52245 10.2003 5.05041 11.1536 5.82581 11.902L9.74831 15.6844L13.6708 11.902C14.4462 11.1536 14.9742 10.2003 15.188 9.16265C15.4018 8.125 15.2919 7.04951 14.8722 6.07206C14.4524 5.09461 13.7417 4.25906 12.8297 3.67094C11.9177 3.08283 10.8454 2.76855 9.74831 2.76781Z" fill="#252525"/>
<path d="M9.74829 10.5062C9.19203 10.5062 8.64826 10.3471 8.18575 10.0491C7.72324 9.75114 7.36275 9.32758 7.14988 8.83201C6.93701 8.33645 6.88131 7.79115 6.98983 7.26506C7.09835 6.73897 7.36622 6.25573 7.75955 5.87644C8.15289 5.49716 8.65403 5.23886 9.1996 5.13421C9.74517 5.02957 10.3107 5.08328 10.8246 5.28854C11.3385 5.49381 11.7778 5.84142 12.0868 6.28742C12.3958 6.73341 12.5608 7.25776 12.5608 7.79415C12.5608 8.51344 12.2645 9.20326 11.737 9.71187C11.2096 10.2205 10.4942 10.5062 9.74829 10.5062ZM9.74829 6.16692C9.41454 6.16692 9.08828 6.26236 8.81077 6.44116C8.53326 6.61996 8.31697 6.8741 8.18925 7.17144C8.06152 7.46878 8.0281 7.79596 8.09322 8.11161C8.15833 8.42726 8.31905 8.71721 8.55505 8.94478C8.79105 9.17235 9.09173 9.32733 9.41908 9.39012C9.74642 9.45291 10.0857 9.42068 10.3941 9.29752C10.7024 9.17436 10.966 8.96579 11.1514 8.6982C11.3368 8.4306 11.4358 8.11599 11.4358 7.79415C11.4358 7.36259 11.258 6.94869 10.9415 6.64353C10.6251 6.33836 10.1958 6.16692 9.74829 6.16692Z" fill="#252525"/>
</svg>
