<svg width="12" height="11" viewBox="0 0 12 11" fill="none" xmlns="http://www.w3.org/2000/svg">
<g clip-path="url(#clip0_35_119)">
<path d="M7.00287 6.7395C6.70432 6.92194 6.35754 7.01839 6 7.01839C5.64248 7.01839 5.2957 6.92194 4.99716 6.7395L0.0798984 3.73441C0.0526172 3.71774 0.0260391 3.70036 0 3.68249V8.60664C0 9.17121 0.499805 9.61926 1.10468 9.61926H10.8953C11.5112 9.61926 12 9.16111 12 8.60664V3.68246C11.9739 3.70038 11.9473 3.71781 11.9199 3.7345L7.00287 6.7395Z" fill="black"/>
<path d="M0.469922 3.19811L5.38718 6.20322C5.57332 6.31698 5.78665 6.37385 5.99998 6.37385C6.21333 6.37385 6.42668 6.31696 6.61282 6.20322L11.5301 3.19811C11.8243 3.0184 12 2.71762 12 2.39299C12 1.8348 11.5046 1.38071 10.8957 1.38071H1.1043C0.495398 1.38073 0 1.83482 0 2.39352C0 2.71762 0.175687 3.0184 0.469922 3.19811Z" fill="black"/>
</g>
<defs>
<clipPath id="clip0_35_119">
<rect width="12" height="11" fill="white"/>
</clipPath>
</defs>
</svg>
