<svg width="14" height="14" viewBox="0 0 14 14" fill="none" xmlns="http://www.w3.org/2000/svg">
<g clip-path="url(#clip0_35_93)">
<path d="M12.8766 8.67887C12.0195 8.67887 11.1779 8.55226 10.3804 8.30335C9.98958 8.17746 9.50917 8.29295 9.27066 8.5243L7.6965 9.64661C5.87092 8.72625 4.7464 7.66455 3.78521 5.95334L4.93857 4.50537C5.23822 4.22274 5.3457 3.80989 5.21693 3.42252C4.95225 2.66535 4.81779 1.87088 4.81779 1.06101C4.81782 0.475966 4.31386 0 3.69443 0H1.12339C0.503964 0 0 0.475966 0 1.06098C0 7.76678 5.77639 13.2222 12.8766 13.2222C13.4961 13.2222 14 12.7463 14 12.1612V9.73982C14 9.15484 13.496 8.67887 12.8766 8.67887Z" fill="black"/>
</g>
<defs>
<clipPath id="clip0_35_93">
<rect width="14" height="13.2222" fill="white"/>
</clipPath>
</defs>
</svg>
