<svg width="21" height="20" viewBox="0 0 21 20" fill="none" xmlns="http://www.w3.org/2000/svg">
<g clip-path="url(#clip0_54_708)">
<path d="M19.948 9.21875H11.5105V0.78125C11.5105 0.349766 11.1607 0 10.7292 0C10.2978 0 9.948 0.349766 9.948 0.78125V9.21875H1.5105C1.07901 9.21875 0.729248 9.56852 0.729248 10C0.729248 10.4315 1.07901 10.7812 1.5105 10.7812H9.948V19.2188C9.948 19.6502 10.2978 20 10.7292 20C11.1607 20 11.5105 19.6502 11.5105 19.2188V10.7812H19.948C20.3795 10.7812 20.7292 10.4315 20.7292 10C20.7292 9.56852 20.3795 9.21875 19.948 9.21875Z" fill="black"/>
</g>
<defs>
<clipPath id="clip0_54_708">
<rect width="20" height="20" fill="white" transform="translate(0.729248)"/>
</clipPath>
</defs>
</svg>
