<svg width="25" height="25" viewBox="0 0 25 25" fill="none" xmlns="http://www.w3.org/2000/svg">
<path d="M2.34609 5.81543C3.10936 5.81543 4.27244 5.81543 4.92667 5.81543C5.25378 5.81543 5.50821 6.03351 5.61724 6.32428C5.94436 7.26928 6.67128 9.34101 7.50724 10.7585C8.63397 12.6122 9.3609 13.3027 9.8334 13.23C10.3059 13.121 10.1605 11.8852 10.1605 10.9039C10.1605 9.92255 10.2696 8.25062 9.79705 7.48735L9.07013 6.43331C8.8884 6.17889 9.07013 5.85178 9.3609 5.85178H13.5044C13.9042 5.85178 14.2313 6.17889 14.2313 6.5787V11.8489C14.2313 11.8489 14.413 12.7939 15.4307 11.8125C16.4484 10.8312 17.5388 9.01389 18.4474 7.16024L18.8109 6.28793C18.9199 6.03351 19.1744 5.85178 19.4651 5.85178H22.1547C22.6636 5.85178 23.0271 6.36062 22.8453 6.83312L22.5546 7.59639C22.5546 7.59639 21.5732 9.55908 20.5555 10.9402C19.5378 12.3577 19.3197 12.6849 19.4651 13.0483C19.6105 13.4118 22.2274 15.847 22.8817 17.01C23.0634 17.3372 23.2088 17.6279 23.3542 17.8824C23.6086 18.3549 23.2451 18.9727 22.6999 18.9727H19.6469C19.3924 18.9727 19.138 18.8274 19.029 18.6093L18.7382 18.1368C18.7382 18.1368 16.8846 15.956 15.7578 15.2654C14.5947 14.6112 14.6311 15.5562 14.6311 15.5562V17.4825C14.6311 18.2822 13.9769 18.9364 13.1772 18.9364H12.4503C12.4503 18.9364 8.45224 18.9364 5.25378 14.175C2.7459 10.4677 1.90994 8.06889 1.61917 6.68774C1.54647 6.25158 1.87359 5.81543 2.34609 5.81543Z" fill="#5181B8"/>
</svg>
