<svg width="24" height="24" viewBox="0 0 24 24" fill="none" xmlns="http://www.w3.org/2000/svg">
<g clip-path="url(#clip0_5_668)">
<path d="M18.3752 4.54862C16.4205 2.58938 13.8176 1.51172 11.0512 1.51172C5.34127 1.51172 0.694963 6.15807 0.694963 11.8679C0.694963 13.6918 1.17083 15.4739 2.07584 17.046L0.606415 22.4107L6.09705 20.9692C7.6085 21.7948 9.31114 22.2288 11.0465 22.2288H11.0512C16.7565 22.2288 21.5053 17.5824 21.5053 11.8726C21.5053 9.10625 20.3298 6.50791 18.3752 4.54862Z" fill="#2CB742"/>
<path d="M11.0512 20.4842C9.50241 20.4842 7.98628 20.069 6.66609 19.2853L6.35356 19.0987L3.0974 19.9523L3.96512 16.7755L3.75985 16.449C2.89686 15.0775 2.44431 13.4961 2.44431 11.868C2.44431 7.12374 6.3069 3.26123 11.0558 3.26123C13.3556 3.26123 15.5154 4.15689 17.1389 5.78493C18.7623 7.41301 19.7606 9.57292 19.756 11.8727C19.756 16.6217 15.7953 20.4842 11.0512 20.4842Z" fill="#FBFBFB"/>
<path d="M15.7721 14.0369C15.5155 13.9064 14.2421 13.2811 14.0041 13.1973C13.7662 13.1086 13.5936 13.0667 13.421 13.3279C13.2484 13.5891 12.7539 14.1675 12.5999 14.3449C12.4507 14.5175 12.2967 14.5408 12.0402 14.4102C10.5194 13.6498 9.52114 13.0527 8.51817 11.3313C8.25225 10.8741 8.78413 10.9068 9.27853 9.91787C9.36258 9.74518 9.3206 9.59593 9.25518 9.46531C9.18994 9.3347 8.6721 8.06117 8.45752 7.54333C8.24762 7.03953 8.03304 7.10949 7.87439 7.10018C7.72514 7.09082 7.55245 7.09082 7.37994 7.09082C7.2073 7.09082 6.92743 7.15615 6.6895 7.41271C6.45162 7.67395 5.78448 8.2991 5.78448 9.57263C5.78448 10.8461 6.71277 12.0777 6.83875 12.2503C6.96932 12.4228 8.66278 15.0353 11.2611 16.1595C12.9032 16.8686 13.547 16.9292 14.368 16.8079C14.8671 16.7333 15.8982 16.1828 16.1127 15.5764C16.3273 14.97 16.3273 14.4522 16.2619 14.3449C16.2013 14.2282 16.0286 14.1629 15.7721 14.0369Z" fill="#2CB742"/>
</g>
<defs>
<clipPath id="clip0_5_668">
<rect width="23.2615" height="23.2615" fill="white" transform="translate(0.532745 0.330566)"/>
</clipPath>
</defs>
</svg>
