<svg width="20" height="20" viewBox="0 0 20 20" fill="none" xmlns="http://www.w3.org/2000/svg">
<g clip-path="url(#clip0_43_6409)">
<path d="M16.3254 16.3686L4.1736 4.21717L4.17101 4.21421C4.10522 4.14895 4.02722 4.0973 3.94147 4.06219C3.85571 4.02708 3.76389 4.0092 3.67123 4.00958C3.57856 4.00996 3.48689 4.02859 3.40142 4.0644C3.31596 4.10021 3.23839 4.1525 3.17314 4.21829C3.10788 4.28408 3.05623 4.36207 3.02112 4.44783C2.98601 4.53358 2.96813 4.62541 2.96851 4.71807C2.96928 4.90521 3.04435 5.08437 3.17722 5.21616L4.24114 6.28008C2.95089 7.16375 1.8403 8.28454 0.968467 9.58282C0.826097 9.79302 0.75 10.0411 0.75 10.2949C0.75 10.5488 0.826097 10.7969 0.968467 11.0071C3.19392 14.3009 6.7219 16.2306 10.2499 16.2065C11.3927 16.2106 12.5278 16.0204 13.6068 15.6439L15.3291 17.3661C15.4617 17.4945 15.6395 17.5658 15.8242 17.5645C16.0088 17.5633 16.1856 17.4896 16.3165 17.3594C16.4475 17.2292 16.5221 17.0528 16.5244 16.8682C16.5267 16.6836 16.4564 16.5054 16.3288 16.372L16.3254 16.3686ZM10.2499 14.2913C9.58148 14.291 8.92378 14.1232 8.33691 13.8033C7.75004 13.4834 7.25271 13.0214 6.89037 12.4598C6.52803 11.8981 6.31224 11.2545 6.26272 10.588C6.21319 9.92138 6.33151 9.25302 6.60687 8.64395L7.71829 9.75538C7.62877 10.1772 7.64607 10.6148 7.76862 11.0282C7.89117 11.4417 8.11508 11.818 8.42002 12.123C8.72497 12.4279 9.10127 12.6518 9.51474 12.7744C9.92821 12.8969 10.3658 12.9142 10.7876 12.8247L11.899 13.9361C11.381 14.171 10.8187 14.2921 10.2499 14.2913Z" fill="black"/>
<path d="M19.5309 9.58097C17.3055 6.28528 13.7775 4.3556 10.2495 4.37972C9.10672 4.37558 7.97156 4.56582 6.89258 4.9423L8.59961 6.64933C9.34034 6.31411 10.1656 6.21261 10.9655 6.35834C11.7654 6.50407 12.5019 6.89012 13.0768 7.46503C13.6517 8.03995 14.0378 8.77643 14.1835 9.57631C14.3292 10.3762 14.2277 11.2015 13.8925 11.9422L16.2579 14.3076C17.5483 13.4241 18.6591 12.3033 19.5309 11.0049C19.6732 10.7947 19.7493 10.5467 19.7493 10.2929C19.7493 10.0391 19.6732 9.79113 19.5309 9.58097Z" fill="black"/>
<path d="M10.2496 7.70509C10.0689 7.70511 9.8887 7.72401 9.71191 7.76149L12.7812 10.8304C12.8613 10.4534 12.8561 10.0632 12.766 9.68839C12.6759 9.31359 12.5033 8.96365 12.2606 8.66412C12.018 8.36459 11.7116 8.12304 11.3636 7.95712C11.0157 7.79119 10.6351 7.70509 10.2496 7.70509Z" fill="black"/>
</g>
<defs>
<clipPath id="clip0_43_6409">
<rect width="19" height="19" fill="white" transform="translate(0.75 0.793091)"/>
</clipPath>
</defs>
</svg>
